<svg xmlns="http://www.w3.org/2000/svg" width="1200" height="595" viewBox="0 0 1200 595">
<rect width="100%" height="100%" fill="#101a2b"/>
<g font-family="system-ui,sans-serif" fill="#e8edf4">
<text x="28" y="43" font-size="26" font-weight="700">Programme A · office fit-out</text>
<text x="28" y="71" font-size="14" fill="#adbbcd">demo-datacentre-01 · illustrative dates · stored programme drivers</text>
<line x1="340.00" y1="94" x2="340.00" y2="550" stroke="#314056"/>
<text x="346.00" y="99" font-size="12">W1</text>
<line x1="408.33" y1="94" x2="408.33" y2="550" stroke="#314056"/>
<text x="414.33" y="99" font-size="12">W2</text>
<line x1="476.67" y1="94" x2="476.67" y2="550" stroke="#314056"/>
<text x="482.67" y="99" font-size="12">W3</text>
<line x1="545.00" y1="94" x2="545.00" y2="550" stroke="#314056"/>
<text x="551.00" y="99" font-size="12">W4</text>
<line x1="613.33" y1="94" x2="613.33" y2="550" stroke="#314056"/>
<text x="619.33" y="99" font-size="12">W5</text>
<line x1="681.67" y1="94" x2="681.67" y2="550" stroke="#314056"/>
<text x="687.67" y="99" font-size="12">W6</text>
<line x1="750.00" y1="94" x2="750.00" y2="550" stroke="#314056"/>
<text x="756.00" y="99" font-size="12">W7</text>
<line x1="818.33" y1="94" x2="818.33" y2="550" stroke="#314056"/>
<text x="824.33" y="99" font-size="12">W8</text>
<line x1="886.67" y1="94" x2="886.67" y2="550" stroke="#314056"/>
<text x="892.67" y="99" font-size="12">W9</text>
<line x1="955.00" y1="94" x2="955.00" y2="550" stroke="#314056"/>
<text x="961.00" y="99" font-size="12">W10</text>
<line x1="1023.33" y1="94" x2="1023.33" y2="550" stroke="#314056"/>
<text x="1029.33" y="99" font-size="12">W11</text>
<line x1="1091.67" y1="94" x2="1091.67" y2="550" stroke="#314056"/>
<text x="1097.67" y="99" font-size="12">W12</text>
<text x="28" y="133" font-size="14">Deliver temporary pod</text>
<rect x="476.67" y="115" width="9.76" height="25" rx="4" fill="#6fd1c0">
<title>Deliver temporary pod: 2027-03-15 to 2027-03-15</title></rect>
<text x="28" y="175" font-size="14">Pod parked awaiting relocation</text>
<rect x="476.67" y="157" width="449.05" height="25" rx="4" fill="#ee9869">
<title>Pod parked awaiting relocation: 2027-03-15 to 2027-04-29</title></rect>
<text x="28" y="217" font-size="14">MEP first fix in both voids</text>
<rect x="613.33" y="199" width="205.00" height="25" rx="4" fill="#6fd1c0">
<title>MEP first fix in both voids: 2027-03-29 to 2027-04-18</title></rect>
<text x="28" y="259" font-size="14">Close corridor ceiling</text>
<rect x="681.67" y="241" width="68.33" height="25" rx="4" fill="#87aee8">
<title>Close corridor ceiling: 2027-04-05 to 2027-04-11</title></rect>
<text x="28" y="301" font-size="14">Close office ceiling</text>
<rect x="681.67" y="283" width="68.33" height="25" rx="4" fill="#87aee8">
<title>Close office ceiling: 2027-04-05 to 2027-04-11</title></rect>
<text x="28" y="343" font-size="14">Inspect first fix</text>
<rect x="818.33" y="325" width="19.52" height="25" rx="4" fill="#f6ca72">
<title>Inspect first fix: 2027-04-19 to 2027-04-20</title></rect>
<text x="28" y="385" font-size="14">Luminaires and grilles from below</text>
<rect x="818.33" y="367" width="117.14" height="25" rx="4" fill="#6fd1c0">
<title>Luminaires and grilles from below: 2027-04-19 to 2027-04-30</title></rect>
<text x="28" y="427" font-size="14">Remove temporary pod position</text>
<rect x="915.95" y="409" width="9.76" height="25" rx="4" fill="#c3a7e8">
<title>Remove temporary pod position: 2027-04-29 to 2027-04-29</title></rect>
<text x="28" y="469" font-size="14">Install final bathroom pod</text>
<rect x="925.71" y="451" width="9.76" height="25" rx="4" fill="#6fd1c0">
<title>Install final bathroom pod: 2027-04-30 to 2027-04-30</title></rect>
<text x="28" y="511" font-size="14">Drainage and sanitary third fix</text>
<rect x="955.00" y="493" width="68.33" height="25" rx="4" fill="#6fd1c0">
<title>Drainage and sanitary third fix: 2027-05-03 to 2027-05-09</title></rect>
<text x="28" y="575" font-size="12" fill="#adbbcd">Epoch 2027-03-01 · 1 time code per calendar day · dependency lags retained; no CPM calculation</text>
</g></svg>
